<svg xmlns="http://www.w3.org/2000/svg" version="1.1" xmlns:xlink="http://www.w3.org/1999/xlink" xmlns:svgjs="http://svgjs.dev/svgjs" width="1500" height="333" viewBox="0 0 1500 333"><g transform="matrix(1,0,0,1,-0.9090909090909918,-0.8310798802546628)"><svg viewBox="0 0 396 88" data-background-color="#ffffff" preserveAspectRatio="xMidYMid meet" height="333" width="1500" xmlns="http://www.w3.org/2000/svg" xmlns:xlink="http://www.w3.org/1999/xlink"><g id="tight-bounds" transform="matrix(1,0,0,1,0.2400000000000091,0.21962471310033038)"><svg viewBox="0 0 395.52 82.51388763173875" height="82.51388763173875" width="395.52"><g><svg viewBox="0 0 515.7770181294252 107.60206036853933" height="82.51388763173875" width="395.52"><g transform="matrix(1,0,0,1,120.25701812942526,27.136760521348318)"><svg viewBox="0 0 395.52 53.32853932584269" height="53.32853932584269" width="395.52"><g id="textblocktransform"><svg viewBox="0 0 395.52 53.32853932584269" height="53.32853932584269" width="395.52" id="textblock"><g><svg viewBox="0 0 395.52 53.32853932584269" height="53.32853932584269" width="395.52"><g transform="matrix(1,0,0,1,0,0)"><svg width="395.52" viewBox="3.5 -35.75 266.98 36" height="53.32853932584269" data-palette-color="url(#ec5d01d8-c6ea-47bb-85c2-c06edaf09d42)"></svg></g></svg></g></svg></g></svg></g><g><svg viewBox="0 0 107.66742987953762 107.60206036853933" height="107.60206036853933" width="107.66742987953762"><g><svg xmlns="http://www.w3.org/2000/svg" viewBox="2 2 28 27.982999999999997" x="0" y="0" height="107.60206036853933" width="107.66742987953762" class="icon-icon-0" data-fill-palette-color="accent" id="icon-0"><g data-name="Layer 2" fill="#205295" data-fill-palette-color="accent"><path d="M19.5 5.5A3.5 3.5 0 1 0 16 9a3.504 3.504 0 0 0 3.5-3.5M16 8a2.5 2.5 0 1 1 2.5-2.5A2.503 2.503 0 0 1 16 8" fill="#205295" data-fill-palette-color="accent"></path><path d="M29.5 17H29v-2.54A1.48 1.48 0 0 0 27.46 13a1.4 1.4 0 0 0-0.46 0.082v-0.621A1.48 1.48 0 0 0 25.46 11 1.46 1.46 0 0 0 24 12.46V17h-1.742l-1.03-5.944A2.51 2.51 0 0 0 18.73 9h-5.454a2.514 2.514 0 0 0-2.505 2.064L9.803 17H8v-4.54A1.48 1.48 0 0 0 6.46 11 1.46 1.46 0 0 0 5 12.46v0.633A1.7 1.7 0 0 0 4.46 13 1.46 1.46 0 0 0 3 14.46V17h-0.5a0.5 0.5 0 0 0 0 1H3v2.54A1.46 1.46 0 0 0 4.46 22h0.08a1.4 1.4 0 0 0 0.46-0.082v0.621A1.46 1.46 0 0 0 6.46 24h0.08A1.46 1.46 0 0 0 8 22.54V18h1.667a1.57 1.57 0 0 0 1.343 1.497 1.87 1.87 0 0 0 1.49-0.44v9.299a1.54 1.54 0 0 0 1.5 1.57 1.52 1.52 0 0 0 1.497-1.515l0.5-4.43 0.503 4.502a1.5 1.5 0 1 0 3 0v-9.472a1.95 1.95 0 0 0 1.32 0.512 2 2 0 0 0 0.282-0.02 1.63 1.63 0 0 0 1.086-0.645 1.5 1.5 0 0 0 0.289-0.858H24v4.54A1.46 1.46 0 0 0 25.46 24h0.08A1.46 1.46 0 0 0 27 22.54v-0.622a1.4 1.4 0 0 0 0.46 0.082h0.08A1.46 1.46 0 0 0 29 20.54V18h0.5a0.5 0.5 0 0 0 0-1M4.54 21h-0.08a0.46 0.46 0 0 1-0.46-0.46v-6.08a0.484 0.484 0 0 1 0.54-0.46 0.46 0.46 0 0 1 0.46 0.46v6.08a0.46 0.46 0 0 1-0.46 0.46M7 22.54a0.46 0.46 0 0 1-0.46 0.46h-0.08a0.46 0.46 0 0 1-0.46-0.46V12.46a0.484 0.484 0 0 1 0.54-0.46 0.46 0.46 0 0 1 0.46 0.46Zm4.756-11.31A1.515 1.515 0 0 1 13.275 10h5.454a1.51 1.51 0 0 1 1.515 1.226L21.243 17H19.5v-2.5a0.5 0.5 0 0 0-1 0V17h-5v-2.5a0.5 0.5 0 0 0-1 0V17h-1.684Zm-0.603 7.277a0.54 0.54 0 0 1-0.474-0.507h1.384a0.88 0.88 0 0 1-0.91 0.507M18 29a0.53 0.53 0 0 1-0.503-0.572l-1-8.984c-0.002-0.015-0.01-0.027-0.013-0.041a0.6 0.6 0 0 0-0.073-0.176 0.6 0.6 0 0 0-0.128-0.131 0.5 0.5 0 0 0-0.1-0.052 1 1 0 0 0-0.077-0.025l-0.05-0.016a1 1 0 0 0-0.062 0.005l-0.05-0.005c-0.012 0.001-0.023 0.01-0.036 0.012a0.5 0.5 0 0 0-0.113 0.036 0.4 0.4 0 0 0-0.151 0.108 0.5 0.5 0 0 0-0.127 0.242c-0.003 0.015-0.012 0.027-0.014 0.043L14.5 28.355a0.504 0.504 0 1 1-1 0V18h5v10.483A0.51 0.51 0 0 1 18 29m3.38-10.731a0.62 0.62 0 0 1-0.416 0.245 0.955 0.955 0 0 1-0.978-0.514h1.49a0.54 0.54 0 0 1-0.095 0.269m4.62 4.27a0.46 0.46 0 0 1-0.46 0.461h-0.08a0.46 0.46 0 0 1-0.46-0.46V12.46a0.484 0.484 0 0 1 0.54-0.46 0.46 0.46 0 0 1 0.46 0.46z m2-2a0.46 0.46 0 0 1-0.46 0.461h-0.08a0.46 0.46 0 0 1-0.46-0.46v-6.08a0.484 0.484 0 0 1 0.54-0.46 0.46 0.46 0 0 1 0.46 0.46Z" fill="#205295" data-fill-palette-color="accent"></path></g></svg></g></svg></g></svg></g><defs></defs><mask id="c8342150-01ec-4816-8616-8835f87e4c8b"><g id="SvgjsG3868"><svg viewBox="0 0 395.52 82.51388763173875" height="82.51388763173875" width="395.52"><g><svg viewBox="0 0 515.7770181294252 107.60206036853933" height="82.51388763173875" width="395.52"><g transform="matrix(1,0,0,1,120.25701812942526,27.136760521348318)"><svg viewBox="0 0 395.52 53.32853932584269" height="53.32853932584269" width="395.52"><g id="SvgjsG3867"><svg viewBox="0 0 395.52 53.32853932584269" height="53.32853932584269" width="395.52" id="SvgjsSvg3866"><g><svg viewBox="0 0 395.52 53.32853932584269" height="53.32853932584269" width="395.52"><g transform="matrix(1,0,0,1,0,0)"><svg width="395.52" viewBox="3.5 -35.75 266.98 36" height="53.32853932584269" data-palette-color="url(#ec5d01d8-c6ea-47bb-85c2-c06edaf09d42)"><path d="M42.7 0L3.5 0 3.5-35.75 42.7-35.75 42.7-29.25 11.5-29.25 11.5-21.35 39.8-21.35 39.8-14.85 11.5-14.85 11.5-6.5 42.7-6.5 42.7 0ZM53.7 0L45.2 0 54.9-12.85 45.2-25.7 53.7-25.7 61.15-15.75 64.8-15.75 72.3-25.7 80.75-25.7 71.1-12.85 80.75 0 72.3 0 64.75-10 61.15-10 53.7 0ZM115.95 0.25L95.7 0.25Q89 0.25 85.25-3.08 81.5-6.4 81.5-12.85L81.5-12.85Q81.5-19.35 85.25-22.68 89-26 95.7-26L95.7-26 108.2-26Q112.59-26 114.92-23.93 117.25-21.85 117.25-18L117.25-18Q117.25-10.15 108.2-10.15L108.2-10.15 89.3-10.15Q90.34-5.5 95.7-5.5L95.7-5.5 115.95-5.5 115.95 0.25ZM107.84-20.25L95.7-20.25Q90.55-20.25 89.34-15.9L89.34-15.9 107.84-15.9Q108.84-15.9 109.42-16.5 110-17.1 110-18.15L110-18.15Q110-20.25 107.84-20.25L107.84-20.25ZM129.09 0L121.74 0 121.74-25.75 141.44-25.75Q145.79-25.75 147.84-23.58 149.89-21.4 149.89-17.85L149.89-17.85 149.89-12.5 142.54-12.5 142.54-16.95Q142.54-19.95 139.54-19.95L139.54-19.95 129.09-19.95 129.09 0ZM184.04 0L153.14 0 153.14-5.3 173.44-20 153.99-20 153.99-25.75 184.04-25.75 184.04-20.45 163.74-5.75 184.04-5.75 184.04 0ZM196.04 0L188.79 0 188.79-25.75 196.04-25.75 196.04 0ZM196.09-30L188.74-30 188.74-35.65 196.09-35.65 196.09-30ZM231.99 0.25L214.74 0.25Q208.04 0.25 204.29-3.08 200.54-6.4 200.54-12.85L200.54-12.85Q200.54-19.35 204.29-22.68 208.04-26 214.74-26L214.74-26 231.49-26 231.49-20.25 214.74-20.25Q211.49-20.25 209.76-18.45 208.04-16.65 208.04-12.85L208.04-12.85Q208.04-9.1 209.76-7.3 211.49-5.5 214.74-5.5L214.74-5.5 231.99-5.5 231.99 0.25ZM269.18 0.25L248.93 0.25Q242.23 0.25 238.48-3.08 234.73-6.4 234.73-12.85L234.73-12.85Q234.73-19.35 238.48-22.68 242.23-26 248.93-26L248.93-26 261.43-26Q265.83-26 268.16-23.93 270.48-21.85 270.48-18L270.48-18Q270.48-10.15 261.43-10.15L261.43-10.15 242.53-10.15Q243.58-5.5 248.93-5.5L248.93-5.5 269.18-5.5 269.18 0.25ZM261.08-20.25L248.93-20.25Q243.78-20.25 242.58-15.9L242.58-15.9 261.08-15.9Q262.08-15.9 262.66-16.5 263.23-17.1 263.23-18.15L263.23-18.15Q263.23-20.25 261.08-20.25L261.08-20.25Z" opacity="1" transform="matrix(1,0,0,1,0,0)" fill="white" class="wordmark-text-0" id="SvgjsPath3865"></path></svg></g></svg></g></svg></g></svg></g><g><svg viewBox="0 0 107.66742987953762 107.60206036853933" height="107.60206036853933" width="107.66742987953762"><g><svg xmlns="http://www.w3.org/2000/svg" viewBox="2 2 28 27.982999999999997" x="0" y="0" height="107.60206036853933" width="107.66742987953762" class="icon-icon-0" data-fill-palette-color="accent" id="SvgjsSvg3864"><g data-name="Layer 2" fill="black"><path d="M19.5 5.5A3.5 3.5 0 1 0 16 9a3.504 3.504 0 0 0 3.5-3.5M16 8a2.5 2.5 0 1 1 2.5-2.5A2.503 2.503 0 0 1 16 8" fill="black"></path><path d="M29.5 17H29v-2.54A1.48 1.48 0 0 0 27.46 13a1.4 1.4 0 0 0-0.46 0.082v-0.621A1.48 1.48 0 0 0 25.46 11 1.46 1.46 0 0 0 24 12.46V17h-1.742l-1.03-5.944A2.51 2.51 0 0 0 18.73 9h-5.454a2.514 2.514 0 0 0-2.505 2.064L9.803 17H8v-4.54A1.48 1.48 0 0 0 6.46 11 1.46 1.46 0 0 0 5 12.46v0.633A1.7 1.7 0 0 0 4.46 13 1.46 1.46 0 0 0 3 14.46V17h-0.5a0.5 0.5 0 0 0 0 1H3v2.54A1.46 1.46 0 0 0 4.46 22h0.08a1.4 1.4 0 0 0 0.46-0.082v0.621A1.46 1.46 0 0 0 6.46 24h0.08A1.46 1.46 0 0 0 8 22.54V18h1.667a1.57 1.57 0 0 0 1.343 1.497 1.87 1.87 0 0 0 1.49-0.44v9.299a1.54 1.54 0 0 0 1.5 1.57 1.52 1.52 0 0 0 1.497-1.515l0.5-4.43 0.503 4.502a1.5 1.5 0 1 0 3 0v-9.472a1.95 1.95 0 0 0 1.32 0.512 2 2 0 0 0 0.282-0.02 1.63 1.63 0 0 0 1.086-0.645 1.5 1.5 0 0 0 0.289-0.858H24v4.54A1.46 1.46 0 0 0 25.46 24h0.08A1.46 1.46 0 0 0 27 22.54v-0.622a1.4 1.4 0 0 0 0.46 0.082h0.08A1.46 1.46 0 0 0 29 20.54V18h0.5a0.5 0.5 0 0 0 0-1M4.54 21h-0.08a0.46 0.46 0 0 1-0.46-0.46v-6.08a0.484 0.484 0 0 1 0.54-0.46 0.46 0.46 0 0 1 0.46 0.46v6.08a0.46 0.46 0 0 1-0.46 0.46M7 22.54a0.46 0.46 0 0 1-0.46 0.46h-0.08a0.46 0.46 0 0 1-0.46-0.46V12.46a0.484 0.484 0 0 1 0.54-0.46 0.46 0.46 0 0 1 0.46 0.46Zm4.756-11.31A1.515 1.515 0 0 1 13.275 10h5.454a1.51 1.51 0 0 1 1.515 1.226L21.243 17H19.5v-2.5a0.5 0.5 0 0 0-1 0V17h-5v-2.5a0.5 0.5 0 0 0-1 0V17h-1.684Zm-0.603 7.277a0.54 0.54 0 0 1-0.474-0.507h1.384a0.88 0.88 0 0 1-0.91 0.507M18 29a0.53 0.53 0 0 1-0.503-0.572l-1-8.984c-0.002-0.015-0.01-0.027-0.013-0.041a0.6 0.6 0 0 0-0.073-0.176 0.6 0.6 0 0 0-0.128-0.131 0.5 0.5 0 0 0-0.1-0.052 1 1 0 0 0-0.077-0.025l-0.05-0.016a1 1 0 0 0-0.062 0.005l-0.05-0.005c-0.012 0.001-0.023 0.01-0.036 0.012a0.5 0.5 0 0 0-0.113 0.036 0.4 0.4 0 0 0-0.151 0.108 0.5 0.5 0 0 0-0.127 0.242c-0.003 0.015-0.012 0.027-0.014 0.043L14.5 28.355a0.504 0.504 0 1 1-1 0V18h5v10.483A0.51 0.51 0 0 1 18 29m3.38-10.731a0.62 0.62 0 0 1-0.416 0.245 0.955 0.955 0 0 1-0.978-0.514h1.49a0.54 0.54 0 0 1-0.095 0.269m4.62 4.27a0.46 0.46 0 0 1-0.46 0.461h-0.08a0.46 0.46 0 0 1-0.46-0.46V12.46a0.484 0.484 0 0 1 0.54-0.46 0.46 0.46 0 0 1 0.46 0.46z m2-2a0.46 0.46 0 0 1-0.46 0.461h-0.08a0.46 0.46 0 0 1-0.46-0.46v-6.08a0.484 0.484 0 0 1 0.54-0.46 0.46 0.46 0 0 1 0.46 0.46Z" fill="black"></path></g></svg></g></svg></g></svg></g><defs><mask></mask></defs></svg><rect width="395.52" height="82.51388763173875" fill="black" stroke="none" visibility="hidden"></rect></g></mask><linearGradient x1="0" x2="1" y1="0.548" y2="0.55" id="ec5d01d8-c6ea-47bb-85c2-c06edaf09d42"><stop stop-color="#ff6cab" offset="0"></stop><stop stop-color="#7366ff" offset="1"></stop></linearGradient><rect width="395.52" height="87.56075057379934" fill="url(#ec5d01d8-c6ea-47bb-85c2-c06edaf09d42)" mask="url(#c8342150-01ec-4816-8616-8835f87e4c8b)" data-fill-palette-color="primary"></rect></svg><rect width="395.52" height="82.51388763173875" fill="none" stroke="none" visibility="hidden"></rect></g></svg></g></svg>